# AST/ASF file generated using VICON BodyLanguage
# -----------------------------------------------
:version 1.10
:name VICON
:units
  mass 1.0
  length 0.45
  angle deg
:documentation
   .ast/.asf automatically generated from VICON data using
   VICON BodyBuilder and BodyLanguage model FoxedUp or BRILLIANT.MOD
:root
   order TX TY TZ RX RY RZ
   axis XYZ
   position 0 0 0  
   orientation 0 0 0 
:bonedata
  begin
     id 1 
     name lhipjoint
     direction 0.645422 -0.672597 0.361999 
     length 2.39934 
     axis 0 0 0  XYZ
  end
  begin
     id 2 
     name lfemur
     direction 0.34202 -0.939693 0  
     length 6.58112  
     axis 0 0 20  XYZ
    dof rx ry rz
    limits (-160.0 20.0)
           (-70.0 70.0)
           (-60.0 70.0)
  end
  begin
     id 3 
     name ltibia
     direction 0.34202 -0.939693 0   
     length 7.02673   
     axis 0 0 20   XYZ
    dof rx
    limits (-10.0 170.0)
  end
  begin
     id 4 
     name lfoot
     direction 0.0835106 -0.229444 0.969733   
     length 2.08772   
     axis -90 7.62852e-016 20   XYZ
    dof rx rz
    limits (-45.0 90.0)
           (-70.0 20.0)
  end
  begin
     id 5 
     name ltoes
     direction 1.5358e-011 -4.21925e-011 1   
     length 1.04844   
     axis -90 7.62852e-016 20   XYZ
    dof rx
    limits (-90.0 20.0)
  end
  begin
     id 6 
     name rhipjoint
     direction -0.644959 -0.672941 0.362185   
     length 2.39812  
     axis 0 0 0  XYZ 
  end
  begin
     id 7 
     name rfemur
     direction -0.34202 -0.939693 0   
     length 6.67015   
     axis 0 0 -20   XYZ
    dof rx ry rz
    limits (-160.0 20.0)
           (-70.0 70.0)
           (-70.0 60.0)
  end
  begin
     id 8 
     name rtibia
     direction -0.34202 -0.939693 0   
     length 7.35735   
     axis 0 0 -20   XYZ
    dof rx
    limits (-10.0 170.0)
 end
 begin
     id 9 
     name rfoot
     direction -0.0670769 -0.184292 0.98058   
     length 2.25469  
     axis -90 -7.62852e-016 -20   XYZ
    dof rx rz
    limits (-45.0 90.0)
           (-20.0 70.0)
  end
  begin
     id 10 
     name rtoes
     direction -1.53575e-011 -4.21908e-011 1   
     length 1.13399   
     axis -90 -7.62852e-016 -20   XYZ
    dof rx
    limits (-90.0 20.0)
  end
  begin
     id 11 
     name lowerback
     direction -0.0188328 0.993434 -0.112847   
     length 2.27656   
     axis 0 0 0   XYZ
    dof rx ry rz
    limits (-20.0 45.0)
           (-30.0 30.0)
           (-30.0 30.0)
  end
  begin
     id 12 
     name upperback
     direction 0.00983139 0.998968 -0.04435   
     length 2.28631   
     axis 0 0 0   XYZ
    dof rx ry rz
    limits (-20.0 45.0)
           (-30.0 30.0)
           (-30.0 30.0)
  end
  begin
     id 13 
     name thorax
     direction 0.0177718 0.999807 0.00833073   
     length 2.30999   
     axis 0 0 0   XYZ
    dof rx ry rz
    limits (-20.0 45.0)
           (-30.0 30.0)
           (-30.0 30.0)
  end
  begin
     id 14 
     name lowerneck
     direction -0.0835025 0.993181 0.0813558   
     length 1.39447   
     axis 0 0 0   XYZ
    dof rx ry rz
    limits (-20.0 45.0)
           (-30.0 30.0)
           (-30.0 30.0)
  end
  begin
     id 15 
     name upperneck
     direction 0.210059 0.976535 0.0474817   
     length 1.39882   
     axis 0 0 0   XYZ
    dof rx ry rz
    limits (-20.0 45.0)
           (-30.0 30.0)
           (-30.0 30.0)
  end
  begin
     id 16
     name head
     direction 0.0780891 0.996944 -0.00207154  
     length 1.41828  
     axis 0 0 0   XYZ
    dof rx ry rz
    limits (-20.0 45.0)
           (-30.0 30.0)
           (-30.0 30.0)
  end
  begin
     id 17 
     name lclavicle
     direction 0.982414 0.166355 -0.0847829  
     length 3.57922  
     axis 0 0 0   XYZ
    dof ry rz
    limits (-20.0 10.0)
           (0.0 20.0)
  end
  begin
     id 18 
     name lhumerus
     direction 1 -4.48975e-011 5.47647e-028   
     length 4.76405   
     axis -180 -30 -90   XYZ
    dof rx ry rz
    limits (-60.0 90.0)
           (-90.0 90.0)
           (-90.0 90.0)
  end
  begin
     id 19
     name lradius
     direction 1 -4.48949e-011 -8.32142e-027   
     length 3.13759   
     axis -180 -30 -90   XYZ
    dof rx
    limits (-10.0 170.0)
  end
  begin
     id 20
     name lwrist
     direction 1 -4.48978e-011 -1.32705e-026   
     length 1.56879   
     axis 9.60836e-015 90 90   XYZ
    dof ry
    limits (-180.0 0.0)
 end
  begin
     id 21 
     name lhand
     direction 1 -4.48975e-011 -2.65409e-026   
     length 0.732262   
     axis 1.69354e-014 90 90   XYZ
    dof rx rz
    limits (-90.0 90.0)
           (-45.0 45.0)
  end
  begin
     id 22 
     name lfingers
     direction 1 -4.48923e-011 -5.30819e-026   
     length 0.590368   
     axis 3.38708e-014 90 90   XYZ
    dof rx
    limits (0.0 90.0)
  end
  begin
     id 23
     name lthumb
     direction 0.707107 -6.34914e-011 0.707107   
     length 0.847654   
     axis -90 45 2.85299e-015   XYZ
    dof rx rz
    limits (-45.0 45.0)
           (-45.0 45.0)
  end
  begin
     id 24 
     name rclavicle
     direction -0.963658 0.245183 -0.106063   
     length 3.43472  
     axis 0 0 0   XYZ 
    dof ry rz
    limits (-10.0 20.0)
           (-20.0 0.0)
  end
  begin
     id 25 
     name rhumerus
     direction -1 -4.48963e-011 -1.64784e-027  
     length 5.10161   
     axis -180 30 90   XYZ
    dof rx ry rz
    limits (-90.0 60.0)
           (-90.0 90.0)
           (-90.0 90.0)
  end
  begin
     id 26 
     name rradius
     direction -1 -4.48969e-011 -2.87943e-027   
     length 3.23267   
     axis -180 30 90   XYZ
    dof rx
    limits (-10.0 170.0)
  end
  begin
     id 27 
     name rwrist
     direction -1 -4.48982e-011 -1.32705e-026   
     length 1.61633   
     axis 9.60836e-015 -90 -90   XYZ
    dof ry
    limits (-180.0 0.0)
  end
  begin
     id 28
     name rhand
     direction -1 -4.48963e-011 -2.65409e-026   
     length 0.702   
     axis 1.69354e-014 -90 -90   XYZ
    dof rx rz
    limits (-90.0 90.0)
           (-45.0 45.0)
  end
  begin
     id 29
     name rfingers
     direction -1 -4.48934e-011 -5.30819e-026   
     length 0.565971   
     axis 3.38708e-014 -90 -90   XYZ
    dof rx
    limits (0.0 90.0)
  end
  begin
     id 30
     name rthumb
     direction -0.707107 -6.34908e-011 0.707107   
     length 0.812624   
     axis -90 -45 -2.85299e-015   XYZ
    dof rx rz
    limits (-45.0 45.0)
           (-45.0 45.0)
  end
:hierarchy
  begin
    root lhipjoint rhipjoint lowerback
    lhipjoint lfemur
    lfemur ltibia
    ltibia lfoot
    lfoot ltoes
    rhipjoint rfemur
    rfemur rtibia
    rtibia rfoot
    rfoot rtoes
    lowerback upperback
    upperback thorax
    thorax lowerneck lclavicle rclavicle
    lowerneck upperneck
    upperneck head
    lclavicle lhumerus
    lhumerus lradius
    lradius lwrist
    lwrist lhand lthumb
    lhand lfingers
    rclavicle rhumerus
    rhumerus rradius
    rradius rwrist
    rwrist rhand rthumb
    rhand rfingers
  end

#!OML:ASF \\sashay\E\basketball\basketball\Project 1\Capture day 1\Session 1\Subject.ASF
:FULLY-SPECIFIED
:DEGREES
33
root -28.6867 13.5054 -10.0162 -161.906 87.686 -168.559
lowerback 10.8385 6.73057 -6.69364
upperback 7.67548 8.7963 -2.23267
thorax 1.44284 4.39683 0.515545
lowerneck 8.52546 -25.4996 -14.3038
upperneck -20.4525 -32.2209 54.1963
head 6.5912 -18.7688 16.8972
rclavicle -4.7112e-014 -3.97569e-015
rhumerus -51.6521 -15.8115 -77.1967
rradius 47.2171
rwrist -33.3419
rhand -32.3644 33.9492
rfingers 7.12502
rthumb -5.60055 4.04317
lclavicle -4.7112e-014 -3.97569e-015
lhumerus -52.6425 35.9872 49.4388
lradius 109.801
lwrist 71.8926
lhand 20.4981 50.7668
lfingers 7.12502
lthumb 44.9988 74.2668
rfemur 21.1198 -10.6797 17.7121
rtibia 36.4822
rfoot -23.8355 -25.8987
rtoes -4.55316
lfemur -43.8777 16.7459 0.0758522
ltibia 64.8389
lfoot -15.376 -6.84111
ltoes -48.499
34
root -28.4748 13.3976 -9.95518 -171.94 86.5326 -178.692
lowerback 11.3962 6.89069 -7.25569
upperback 7.84982 8.96629 -2.72183
thorax 1.33301 4.49425 0.235132
lowerneck 9.9659 -26.0321 -13.3745
upperneck -22.3734 -32.1016 56.1498
head 6.23676 -19.3232 17.9744
rclavicle -7.07673e-014 4.45278e-014
rhumerus -50.2461 -16.1301 -78.4905
rradius 44.7544
rwrist -32.4725
rhand -31.7368 33.1952
rfingers 7.12502
rthumb -4.99459 3.27411
lclavicle -7.07673e-014 4.45278e-014
lhumerus -48.5275 35.4749 51.8751
lradius 110.624
lwrist 71.4133
lhand 20.634 51.4497
lfingers 7.12502
lthumb 45.1252 74.8997
rfemur 21.2166 -12.8237 17.3583
rtibia 37.8392
rfoot -22.1214 -25.1042
rtoes -7.18895
lfemur -44.3174 16.5306 0.057757
ltibia 66.1518
lfoot -16.7355 -7.41794
ltoes -49.3462
35
root -28.263 13.3025 -9.90537 -172.914 86.088 -179.652
lowerback 11.9354 7.11812 -7.88847
upperback 7.97896 9.1849 -2.81203
thorax 1.1069 4.59864 0.385539
lowerneck 11.1177 -26.2497 -13.323
upperneck -23.5202 -32.0234 57.381
head 6.13693 -19.706 18.801
rclavicle -3.97569e-016 -1.63003e-014
rhumerus -48.8771 -15.523 -79.4045
rradius 42.6315
rwrist -31.6558
rhand -31.5774 32.3719
rfingers 7.12502
rthumb -4.84065 2.44722
lclavicle -3.97569e-016 -1.63003e-014
lhumerus -45.1184 35.407 54.5363
lradius 111.345
lwrist 70.7707
lhand 20.4173 52.0942
lfingers 7.12502
lthumb 44.9237 75.6238
rfemur 21.2405 -14.7865 16.6354
rtibia 39.6139
rfoot -21.8323 -23.2311
rtoes -6.7536
lfemur -44.163 16.9171 0.56095
ltibia 67.2845
lfoot -18.146 -8.22391
ltoes -50.1945
36
root -28.0396 13.2182 -9.8403 -171.906 86.4102 -178.959
lowerback 11.8238 7.44273 -9.06847
upperback 8.02131 9.51099 -2.61689
thorax 0.998926 4.71457 1.17155
lowerneck 12.2843 -26.1163 -14.2337
upperneck -24.1251 -32.0023 58.007
head 6.31402 -19.9977 19.6878
rclavicle -1.27222e-013 1.51076e-014
rhumerus -47.6086 -14.3514 -79.9212
rradius 40.8814
rwrist -30.5029
rhand -31.7076 31.8028
rfingers 7.12502
rthumb -4.96643 1.88099
lclavicle -1.27222e-013 1.51076e-014
lhumerus -42.1678 35.835 57.3855
lradius 111.875
lwrist 69.9145
lhand 20.3444 52.7554
lfingers 7.12502
lthumb 44.8558 76.3115
rfemur 20.5576 -16.1958 15.8127
rtibia 42.0354
rfoot -22.1631 -20.8997
rtoes -6.97275
lfemur -43.7509 18.1356 1.22621
ltibia 68.2173
lfoot -19.7642 -8.81969
ltoes -51.5589
37
root -27.8294 13.1315 -9.79033 -175.872 85.6763 -183.654
lowerback 11.6492 7.33333 -9.77715
upperback 8.02763 9.33368 -2.74151
thorax 1.04377 4.60479 1.46362
lowerneck 12.7799 -26.1302 -14.286
upperneck -24.5691 -31.9243 58.4378
head 6.2684 -20.1429 20.0981
rclavicle 3.02153e-014 2.74323e-014
rhumerus -46.5383 -13.9123 -80.4385
rradius 39.7658
rwrist -29.0104
rhand -31.4657 31.815
rfingers 7.12502
rthumb -4.73287 1.88783
lclavicle 3.02153e-014 2.74323e-014
lhumerus -38.4328 35.9635 60.5419
lradius 112.017
lwrist 68.6625
lhand 20.9658 53.3557
lfingers 7.12502
lthumb 45.4337 76.6824
rfemur 19.3613 -18.5223 14.7435
rtibia 44.8416
rfoot -21.384 -18.47
rtoes -7.31627
lfemur -44.3445 18.2931 1.19052
ltibia 69.0453
lfoot -21.1491 -9.09571
ltoes -52.309
